<svg width="1440" height="500" viewBox="0 0 1440 500" xmlns="http://www.w3.org/2000/svg"><mask id="satori_om-id"><rect x="0" y="0" width="1440" height="500" fill="#fff"/></mask><mask id="satori_om-id-0"><rect x="0" y="0" width="240" height="500" fill="#fff"/></mask><rect x="0" y="0" width="240" height="500" fill="#f8e9a1"/><mask id="satori_om-id-0-0"><rect x="80" y="236" width="80" height="28" fill="#fff"/></mask><text x="80" y="256.7932104184129" width="12.86221590909091" height="28.238636363636363" font-weight="bold" font-style="normal" font-size="20" font-family="system-ui" fill="#000000">#</text><text x="92.8622159090909" y="256.7932104184129" width="66.38494318181819" height="28.238636363636363" font-weight="bold" font-style="normal" font-size="20" font-family="system-ui" fill="#000000">f8e9a1</text><mask id="satori_om-id-1"><rect x="240" y="0" width="240" height="500" fill="#fff"/></mask><rect x="240" y="0" width="240" height="500" fill="#f76c6c"/><mask id="satori_om-id-1-0"><rect x="319" y="236" width="82" height="28" fill="#fff"/></mask><text x="319" y="256.7932104184129" width="12.86221590909091" height="28.238636363636363" font-weight="bold" font-style="normal" font-size="20" font-family="system-ui" fill="#FFFFFF">#</text><text x="331.86221590909093" y="256.7932104184129" width="68.30255681818181" height="28.238636363636363" font-weight="bold" font-style="normal" font-size="20" font-family="system-ui" fill="#FFFFFF">f76c6c</text><mask id="satori_om-id-2"><rect x="480" y="0" width="240" height="500" fill="#fff"/></mask><rect x="480" y="0" width="240" height="500" fill="#a8d0e6"/><mask id="satori_om-id-2-0"><rect x="556" y="236" width="89" height="28" fill="#fff"/></mask><text x="556" y="256.7932104184129" width="12.86221590909091" height="28.238636363636363" font-weight="bold" font-style="normal" font-size="20" font-family="system-ui" fill="#000000">#</text><text x="568.8622159090909" y="256.7932104184129" width="75.17045454545456" height="28.238636363636363" font-weight="bold" font-style="normal" font-size="20" font-family="system-ui" fill="#000000">a8d0e6</text><mask id="satori_om-id-3"><rect x="720" y="0" width="240" height="500" fill="#fff"/></mask><rect x="720" y="0" width="240" height="500" fill="#24305e"/><mask id="satori_om-id-3-0"><rect x="795" y="236" width="90" height="28" fill="#fff"/></mask><text x="795" y="256.7932104184129" width="12.86221590909091" height="28.238636363636363" font-weight="bold" font-style="normal" font-size="20" font-family="system-ui" fill="#FFFFFF">#</text><text x="807.8622159090909" y="256.7932104184129" width="76.6193181818182" height="28.238636363636363" font-weight="bold" font-style="normal" font-size="20" font-family="system-ui" fill="#FFFFFF">24305e</text><mask id="satori_om-id-4"><rect x="960" y="0" width="240" height="500" fill="#fff"/></mask><rect x="960" y="0" width="240" height="500" fill="#ffffff"/><mask id="satori_om-id-4-0"><rect x="1051" y="236" width="59" height="28" fill="#fff"/></mask><text x="1051" y="256.7932104184129" width="12.86221590909091" height="28.238636363636363" font-weight="bold" font-style="normal" font-size="20" font-family="system-ui" fill="#000000">#</text><text x="1063.862215909091" y="256.7932104184129" width="45.25568181818183" height="28.238636363636363" font-weight="bold" font-style="normal" font-size="20" font-family="system-ui" fill="#000000">ffffff</text><mask id="satori_om-id-5"><rect x="1200" y="0" width="240" height="500" fill="#fff"/></mask><rect x="1200" y="0" width="240" height="500" fill="#222222"/><mask id="satori_om-id-5-0"><rect x="1276" y="236" width="88" height="28" fill="#fff"/></mask><text x="1276" y="256.7932104184129" width="12.86221590909091" height="28.238636363636363" font-weight="bold" font-style="normal" font-size="20" font-family="system-ui" fill="#FFFFFF">#</text><text x="1288.862215909091" y="256.7932104184129" width="74.57386363636364" height="28.238636363636363" font-weight="bold" font-style="normal" font-size="20" font-family="system-ui" fill="#FFFFFF">222222</text></svg>